<svg width="51" height="50" viewBox="0 0 51 50" fill="none" xmlns="http://www.w3.org/2000/svg">
<path
        d="M25.6267 49.8229C20.5935 49.8229 16.2007 48.8294 12.4482 46.8424C8.73811 44.8555 5.86951 42.0076 3.83716 38.2986C1.84714 34.5897 0.857422 30.2183 0.857422 25.1848C0.857422 20.1512 1.84714 15.7799 3.83716 12.071C5.86951 8.36203 8.73811 5.51405 12.4482 3.52712C16.2007 1.49602 20.5935 0.480469 25.6267 0.480469C30.66 0.480469 35.0317 1.47394 38.7418 3.46088C42.4943 5.44782 45.3629 8.31783 47.3476 12.071C49.3799 15.7799 50.3961 20.1512 50.3961 25.1848C50.3961 30.2183 49.3799 34.5897 47.3476 38.2986C45.3629 42.0076 42.4943 44.8555 38.7418 46.8424C35.0317 48.8294 30.66 49.8229 25.6267 49.8229ZM25.6267 45.2529C29.6015 45.2529 33.0205 44.4581 35.8944 42.8685C38.8053 41.2348 41.0123 38.9168 42.5154 35.9143C44.0609 32.8676 44.8336 29.2911 44.8336 25.1848C44.8336 21.0784 44.0609 17.524 42.5154 14.5215C41.0123 11.4749 38.8053 9.13471 35.8944 7.50101C33.0205 5.8673 29.6015 5.05044 25.6267 5.05044C21.6943 5.05044 18.2754 5.8673 15.3591 7.50101C12.4906 9.13471 10.2835 11.4749 8.73811 14.5215C7.19267 17.524 6.41995 21.0784 6.41995 25.1848C6.41995 29.2911 7.19267 32.8676 8.73811 35.9143C10.2835 38.9168 12.4906 41.2348 15.3591 42.8685C18.2754 44.4581 21.6943 45.2529 25.6267 45.2529ZM26.0872 40.0206C23.1763 40.0206 20.6359 39.4024 18.4712 38.1661C16.3118 36.8856 14.6552 35.1416 13.5067 32.9338C12.3582 30.682 11.7866 28.099 11.7866 25.1848C11.7866 22.3148 12.3371 19.7538 13.4379 17.5019C14.5441 15.2059 16.1319 13.4398 18.2066 12.2034C20.2813 10.923 22.7317 10.2827 25.5579 10.2827C28.1672 10.2827 30.4165 10.7684 32.3166 11.7398C34.259 12.7112 35.7568 14.0358 36.8206 15.7137C37.9215 17.3916 38.583 19.2902 38.8053 21.4096H31.3904C31.2104 20.0408 30.7023 18.8487 29.8661 17.8331C29.0246 16.8175 27.6591 16.3098 25.7591 16.3098C24.3036 16.3098 23.0863 16.663 22.1177 17.3695C21.1862 18.0759 20.5035 19.1136 20.0642 20.4824C19.6196 21.807 19.4026 23.3745 19.4026 25.1848C19.4026 27.9224 19.9108 30.0859 20.9217 31.6755C21.9379 33.2209 23.552 33.9935 25.7591 33.9935C27.6591 33.9935 29.0246 33.5079 29.8661 32.5365C30.7023 31.5209 31.2104 30.2846 31.3904 28.8275H38.8053C38.673 30.9469 38.1014 32.8676 37.0852 34.5897C36.069 36.2675 34.6136 37.5921 32.7135 38.5635C30.8558 39.5349 28.6488 40.0206 26.0872 40.0206Z" fill="#E8E8E3"/>
</svg>
